<?xml version="1.0" encoding="utf-8"?>
<!-- Generator: Adobe Illustrator 21.1.0, SVG Export Plug-In . SVG Version: 6.00 Build 0)  -->
<svg version="1.1" id="Layer_1" xmlns="http://www.w3.org/2000/svg" xmlns:xlink="http://www.w3.org/1999/xlink" x="0px" y="0px"
	 viewBox="0 0 839 179.7" style="enable-background:new 0 0 839 179.7;" xml:space="preserve">
<style type="text/css">
	.st0{fill:#FFFFFF;}
</style>
<g>
	<path class="st0" d="M179.7,135.7h4.9l-7.9,13.6v8.6h-4.5v-8.5l-7.9-13.7h4.9l4.4,7.7l0.9,2l0.9-2L179.7,135.7z"/>
	<path class="st0" d="M184.5,146.8c0-6.4,4.6-11.6,11.2-11.6c6.8,0,11.3,5.2,11.3,11.6c0,6.4-4.5,11.6-11.3,11.6
		C189,158.4,184.5,153.2,184.5,146.8z M202.4,146.8c0-4.2-2.8-7.3-6.7-7.3c-3.8,0-6.6,3.1-6.6,7.3s2.8,7.3,6.6,7.3
		C199.6,154.1,202.4,151,202.4,146.8z"/>
	<path class="st0" d="M210.5,148.4v-12.7h4.5v12.7c0,3.2,1.7,5.7,5.1,5.7c3.5,0,5.1-2.4,5.1-5.7v-12.7h4.5v12.7c0,5.7-3.5,10-9.5,10
		C214.2,158.4,210.5,154.1,210.5,148.4z"/>
	<path class="st0" d="M243.8,135.7c5.1,0,8.5,3,8.5,7.4c0,3.3-1.7,5.6-4.4,6.7v0.3l5.1,7.3v0.4h-5l-5-7.3h-4.2v7.3h-4.5v-22.2H243.8
		z M243.5,139.6h-4.7v7.1h4.8c2.3,0,4-1.2,4-3.6C247.7,140.7,246,139.6,243.5,139.6z"/>
	<path class="st0" d="M276.1,143.6l-4.1,14.3h-3.5l-6.8-22.2h4.8l3.7,13.8l4-13.8h3.6l4,13.9l3.7-13.9h4.9l-6.8,22.2h-3.4
		L276.1,143.6z"/>
	<path class="st0" d="M310.2,157.9h-4.8l-1.6-4.3h-9.6l-1.6,4.3h-4.8l8.8-22.2h4.7L310.2,157.9z M295.5,150h6.9l-3.5-9.3L295.5,150z
		"/>
	<path class="st0" d="M313.5,152.1c0,0,2.8,2.1,6.2,2.1c2.4,0,3.4-1,3.4-2.5c0-1.4-0.9-2.2-4.4-3.3c-4.8-1.4-7.3-3.2-7.3-6.7
		c0-3.9,2.8-6.6,8.3-6.6c5.8,0,8,2.3,8,2.3l-2.4,3.7c0,0-2.2-1.9-5.6-1.9c-2.2,0-3.3,0.9-3.3,2.2c0,1.3,1.1,1.9,4.3,2.9
		c5.1,1.4,7.6,3.4,7.6,7c0,3.9-2.7,7-8.4,7c-5.9,0-8.8-2.8-8.8-2.8L313.5,152.1z"/>
	<path class="st0" d="M330.2,135.7h17.7v3.9h-6.6v18.3h-4.5v-18.3h-6.6V135.7z"/>
	<path class="st0" d="M365.5,148.4h-9.7v5.5h11.5v3.9h-16v-22.2h16v3.9h-11.5v5.2h9.7V148.4z"/>
	<path class="st0" d="M382.8,149.6c0,1.9-1.6,3.4-3.5,3.4c-1.9,0-3.5-1.5-3.5-3.4c0-1.9,1.6-3.5,3.5-3.5
		C381.2,146.1,382.8,147.7,382.8,149.6z"/>
	<path class="st0" d="M407.5,143.1c0,4.7-3.4,7.5-8.5,7.5h-5v7.2h-4.5v-22.2h9.5C404.2,135.7,407.5,138.6,407.5,143.1z M398.8,139.6
		H394v7.2h4.7c2.4,0,4.1-1.1,4.1-3.6C402.9,140.7,401.2,139.6,398.8,139.6z"/>
	<path class="st0" d="M409.6,146.8c0-6.4,4.6-11.6,11.2-11.6c6.8,0,11.3,5.2,11.3,11.6c0,6.4-4.5,11.6-11.3,11.6
		C414.2,158.4,409.6,153.2,409.6,146.8z M427.5,146.8c0-4.2-2.8-7.3-6.7-7.3c-3.8,0-6.6,3.1-6.6,7.3s2.8,7.3,6.6,7.3
		C424.7,154.1,427.5,151,427.5,146.8z"/>
	<path class="st0" d="M446.9,143.6l-4.1,14.3h-3.5l-6.8-22.2h4.8l3.7,13.8l4-13.8h3.6l4,13.9l3.7-13.9h4.9l-6.8,22.2h-3.4
		L446.9,143.6z"/>
	<path class="st0" d="M477.7,148.4H468v5.5h11.5v3.9h-16v-22.2h16v3.9H468v5.2h9.7V148.4z"/>
	<path class="st0" d="M492.9,135.7c5.1,0,8.5,3,8.5,7.4c0,3.3-1.7,5.6-4.4,6.7v0.3l5.1,7.3v0.4h-5l-5-7.3h-4.2v7.3h-4.5v-22.2H492.9
		z M492.6,139.6h-4.7v7.1h4.8c2.3,0,4-1.2,4-3.6C496.8,140.7,495.1,139.6,492.6,139.6z"/>
	<path class="st0" d="M510,157.9h-4.5v-22.2h4.5V157.9z"/>
	<path class="st0" d="M533.3,157.9h-3.4l-11.7-14.4v14.4h-4.5v-22.2h3.4l11.7,14.2v-14.2h4.5V157.9z"/>
	<path class="st0" d="M547.7,145h10.9v2.7c0,6.4-4,10.7-10.4,10.7c-7,0-11.2-5.2-11.2-11.6c0-6.4,4.3-11.6,11.3-11.6
		c5.6,0,8,2.8,8,2.8l-2.7,3.4c0,0-1.9-2-5.3-2c-3.9,0-6.6,3.1-6.6,7.3s2.7,7.3,6.6,7.3c3.4,0,5.3-2.2,5.4-5.1v-0.3h-6V145z"/>
	<path class="st0" d="M567.1,135.7h17.7v3.9h-6.6v18.3h-4.5v-18.3h-6.6V135.7z"/>
	<path class="st0" d="M607.4,157.9h-4.5v-9.3h-10.2v9.3h-4.5v-22.2h4.5v9.3h10.2v-9.3h4.5V157.9z"/>
	<path class="st0" d="M625.9,148.4h-9.7v5.5h11.5v3.9h-16v-22.2h16v3.9h-11.5v5.2h9.7V148.4z"/>
	<path class="st0" d="M653.4,148.5h-9.7v9.4h-4.5v-22.2h16.1v3.9h-11.6v5.3h9.7V148.5z"/>
	<path class="st0" d="M658.7,148.4v-12.7h4.5v12.7c0,3.2,1.7,5.7,5.1,5.7c3.5,0,5.1-2.4,5.1-5.7v-12.7h4.5v12.7c0,5.7-3.5,10-9.5,10
		C662.4,158.4,658.7,154.1,658.7,148.4z"/>
	<path class="st0" d="M680.9,135.7h17.7v3.9H692v18.3h-4.5v-18.3h-6.6V135.7z"/>
	<path class="st0" d="M701.7,148.4v-12.7h4.5v12.7c0,3.2,1.7,5.7,5.1,5.7c3.5,0,5.1-2.4,5.1-5.7v-12.7h4.5v12.7c0,5.7-3.5,10-9.5,10
		C705.4,158.4,701.7,154.1,701.7,148.4z"/>
	<path class="st0" d="M734.3,135.7c5.1,0,8.5,3,8.5,7.4c0,3.3-1.7,5.6-4.4,6.7v0.3l5.1,7.3v0.4h-5l-5-7.3h-4.2v7.3h-4.5v-22.2H734.3
		z M734.1,139.6h-4.7v7.1h4.8c2.3,0,4-1.2,4-3.6C738.2,140.7,736.5,139.6,734.1,139.6z"/>
	<path class="st0" d="M760.4,148.4h-9.7v5.5h11.5v3.9h-16v-22.2h16v3.9h-11.5v5.2h9.7V148.4z"/>
</g>
<path class="st0" d="M63.8,128.1c-19.9,0-36.3-14.9-38.8-34.2H0.2v0H0v85.7h4.2c9.7-1.2,17.6-8.1,20.4-17.2v-23.3
	c10.8,8.5,24.4,13.5,39.2,13.5c33.5,0,61-25.9,63.6-58.8h-24.7C100.1,113.2,83.7,128.1,63.8,128.1z"/>
<path class="st0" d="M127.6,0c-13.4,0-24.3,10.7-24.6,24.1v14.6c-10.8-8.5-24.4-13.5-39.2-13.5c-33.5,0-61,25.9-63.6,58.8H25
	c2.5-19.2,18.9-34.2,38.8-34.2s36.3,14.9,38.8,34.2h24.7v0h0.2L127.6,0z"/>
<path class="st0" d="M193.9,97.9v27.9h-22V27.1c15.8,0,30.9,0,46.6,0c25.3,0,37.8,16.4,37.8,35.4c0,19.8-12.7,35.1-37.8,35.4H193.9z
	 M193.9,77.7h24.6c10.6,0,15.8-6.9,15.8-14.8s-5.4-15-15.8-15h-24.6V77.7z"/>
<path class="st0" d="M259.6,91.2c0-21,15-36.6,38.1-36.6c23.3,0,38.3,15.5,38.3,36.6c0,21-14.5,36.3-38.3,36.3
	C274.1,127.4,259.6,112.2,259.6,91.2z M315.3,91.2c0-8.8-5.4-18.4-17.6-18.4c-12.1,0-17.5,9.6-17.5,18.4c0,8.8,5.2,18.2,17.5,18.2
	C310.1,109.4,315.3,100.3,315.3,91.2z"/>
<path class="st0" d="M403.3,56.1l13.4,44.5l4.5-15.8l9.7-28.7h22.7l-25.8,70.2h-20.2l-12.4-34.9l-12.3,34.9h-20.3l-25.7-70.2h22.7
	l9.7,28.7l4.5,15.8l13.4-44.5H403.3z"/>
<path class="st0" d="M475.4,97.6c1,6.8,7.5,12.3,18.9,12.3c5.5,0,13.1-1.3,18.1-5.5l11.4,12.7c-7.5,7.3-19.5,10.3-29.9,10.3
	c-25.3,0-39.1-14.8-39.1-37.1c0-21.2,14.3-36,37-36c23.7,0,39.2,14.8,34.9,43.3H475.4z M508.4,82.8c-0.4-7.6-8.2-11.2-16.7-11.2
	c-8.2,0-14.4,4.2-16.4,11.2H508.4z"/>
<path class="st0" d="M556.3,56.3l1.6,7.6c4.7-6.5,10.9-9.3,18.6-9.3c6.6,0,12.1,2,17.1,6.4L585.1,77c-3.4-2.4-6.9-3.5-11.2-3.5
	c-8.8,0-16.2,5.6-16.2,16.1v36.3h-20.3V56.3H556.3z"/>
<path class="st0" d="M673,27.2v98.7h-18.2l-1.3-8.9c-6.5,8.3-14.4,10.2-23.1,10.2c-20.5,0-34.4-14.4-34.4-36.1
	c0-22.6,14.3-36.3,34.7-36.3c8.2,0,16,2.5,21.9,9.9V27.2H673z M616.4,91c0,10,6.2,17.9,17.1,17.9c9.2,0,18.8-4.7,18.8-17.9
	c0-11.7-9.5-17.9-18.8-17.9C623.1,73.1,616.4,80.6,616.4,91z"/>
<path class="st0" d="M752.6,81.8v44h-17.2l-1.6-6.9c-6.5,6.8-15.1,7.8-21.6,7.8c-13.8,0-26.8-6.9-26.8-23.6
	c0-15.4,14-23.1,28.4-23.1c4.8,0,13.7,1.4,18.8,4.5v-2.7c0-8.6-9.2-10.3-16.7-10.3c-8.2,0-17.6,2.8-22.2,4.7l-3-15.7
	c8-3.8,17.2-6.4,25.1-6.4C736.4,54.2,752.6,59.2,752.6,81.8z M717.2,110.3c5.5,0,13.3-2.3,15.2-10.3c-3.5-3-9.7-4.2-14-4.1
	c-7.2,0-12.7,1.8-12.7,7.2C705.8,108.7,711.1,110.3,717.2,110.3z"/>
<path class="st0" d="M816.6,56.1L799.5,100l-17.4-43.9h-22.9l29.2,67.6l-2.8,6.6c0,0-0.6,1.6-2.2,2.9c-3.1,2.6-7.7,2.5-7.7,2.5h-8
	v22.2l3.2,0h10.8c0,0,14.3,0,21.2-16.5l6-14.2l30-71H816.6z"/>
</svg>
